<svg width="332" height="39" viewBox="0 0 332 39" fill="none" xmlns="http://www.w3.org/2000/svg">
<path d="M97.9398 32H6.06015C1.38593 32 0 26.3957 0 19.5C0 12.6043 1.38593 7 6.06015 7H97.9398C102.614 7 104 12.6043 104 19.5C104 26.3957 102.614 32 97.9398 32Z" fill="#3DB250"/>
<path d="M323.445 31H235.555C230.835 31 227 25.6199 227 19C227 12.3801 230.835 7 235.555 7H323.445C328.165 7 332 12.3801 332 19C332 25.6199 328.165 31 323.445 31Z" fill="#E2E3E4"/>
<path d="M219.891 31H112.109C106.626 31 105 25.6199 105 19C105 12.3801 106.626 7 112.109 7H219.891C225.374 7 227 12.3801 227 19C227 25.6199 225.374 31 219.891 31Z" fill="#3DB250"/>
<path d="M124 19.5C124 30.2696 115.27 39 104.5 39C93.7304 39 85 30.2696 85 19.5C85 8.73045 93.7304 0 104.5 0C115.27 0 124 8.73045 124 19.5Z" fill="#297035"/>
<path d="M250 19.5C250 30.2696 241.27 39 230.5 39C219.73 39 211 30.2696 211 19.5C211 8.73045 219.73 0 230.5 0C241.27 0 250 8.73045 250 19.5Z" fill="#297035"/>
<path d="M105.507 11.4545V26H102.432V14.3736H102.347L99.0156 16.4616V13.7344L102.616 11.4545H105.507Z" fill="white"/>
<path d="M225.179 26V23.7841L230.357 18.9901C230.797 18.5639 231.166 18.1804 231.464 17.8395C231.768 17.4986 231.997 17.1648 232.153 16.8381C232.31 16.5066 232.388 16.1491 232.388 15.7656C232.388 15.3395 232.291 14.9725 232.097 14.6648C231.902 14.3523 231.637 14.1132 231.301 13.9474C230.965 13.777 230.584 13.6918 230.158 13.6918C229.713 13.6918 229.324 13.7817 228.993 13.9616C228.661 14.1416 228.406 14.3996 228.226 14.7358C228.046 15.072 227.956 15.4721 227.956 15.9361H225.037C225.037 14.9844 225.252 14.1581 225.683 13.4574C226.114 12.7566 226.718 12.2145 227.494 11.831C228.271 11.4474 229.166 11.2557 230.179 11.2557C231.221 11.2557 232.127 11.4403 232.899 11.8097C233.676 12.1742 234.279 12.6809 234.71 13.3295C235.141 13.9782 235.357 14.7216 235.357 15.5597C235.357 16.1089 235.248 16.651 235.03 17.1861C234.817 17.7211 234.436 18.3153 233.886 18.9688C233.337 19.6174 232.563 20.3963 231.564 21.3054L229.44 23.3864V23.4858H235.548V26H225.179Z" fill="white"/>
</svg>
