<svg id="visual" viewBox="0 0 770 1024" width="770" height="1024" xmlns="http://www.w3.org/2000/svg" xmlns:xlink="http://www.w3.org/1999/xlink" version="1.1"><rect x="0" y="0" width="770" height="1024" fill="#009473"></rect><defs><linearGradient id="grad1_0" x1="0%" y1="100%" x2="100%" y2="0%"><stop offset="30%" stop-color="#000e0b" stop-opacity="1"></stop><stop offset="70%" stop-color="#000e0b" stop-opacity="1"></stop></linearGradient></defs><defs><linearGradient id="grad1_1" x1="0%" y1="100%" x2="100%" y2="0%"><stop offset="30%" stop-color="#000e0b" stop-opacity="1"></stop><stop offset="70%" stop-color="#0b201c" stop-opacity="1"></stop></linearGradient></defs><defs><linearGradient id="grad1_2" x1="0%" y1="100%" x2="100%" y2="0%"><stop offset="30%" stop-color="#0c312a" stop-opacity="1"></stop><stop offset="70%" stop-color="#0b201c" stop-opacity="1"></stop></linearGradient></defs><defs><linearGradient id="grad1_3" x1="0%" y1="100%" x2="100%" y2="0%"><stop offset="30%" stop-color="#0c312a" stop-opacity="1"></stop><stop offset="70%" stop-color="#0c4439" stop-opacity="1"></stop></linearGradient></defs><defs><linearGradient id="grad1_4" x1="0%" y1="100%" x2="100%" y2="0%"><stop offset="30%" stop-color="#0a5747" stop-opacity="1"></stop><stop offset="70%" stop-color="#0c4439" stop-opacity="1"></stop></linearGradient></defs><defs><linearGradient id="grad1_5" x1="0%" y1="100%" x2="100%" y2="0%"><stop offset="30%" stop-color="#0a5747" stop-opacity="1"></stop><stop offset="70%" stop-color="#066a56" stop-opacity="1"></stop></linearGradient></defs><defs><linearGradient id="grad1_6" x1="0%" y1="100%" x2="100%" y2="0%"><stop offset="30%" stop-color="#027f65" stop-opacity="1"></stop><stop offset="70%" stop-color="#066a56" stop-opacity="1"></stop></linearGradient></defs><defs><linearGradient id="grad1_7" x1="0%" y1="100%" x2="100%" y2="0%"><stop offset="30%" stop-color="#027f65" stop-opacity="1"></stop><stop offset="70%" stop-color="#009473" stop-opacity="1"></stop></linearGradient></defs><defs><linearGradient id="grad2_0" x1="0%" y1="100%" x2="100%" y2="0%"><stop offset="30%" stop-color="#000e0b" stop-opacity="1"></stop><stop offset="70%" stop-color="#000e0b" stop-opacity="1"></stop></linearGradient></defs><defs><linearGradient id="grad2_1" x1="0%" y1="100%" x2="100%" y2="0%"><stop offset="30%" stop-color="#0b201c" stop-opacity="1"></stop><stop offset="70%" stop-color="#000e0b" stop-opacity="1"></stop></linearGradient></defs><defs><linearGradient id="grad2_2" x1="0%" y1="100%" x2="100%" y2="0%"><stop offset="30%" stop-color="#0b201c" stop-opacity="1"></stop><stop offset="70%" stop-color="#0c312a" stop-opacity="1"></stop></linearGradient></defs><defs><linearGradient id="grad2_3" x1="0%" y1="100%" x2="100%" y2="0%"><stop offset="30%" stop-color="#0c4439" stop-opacity="1"></stop><stop offset="70%" stop-color="#0c312a" stop-opacity="1"></stop></linearGradient></defs><defs><linearGradient id="grad2_4" x1="0%" y1="100%" x2="100%" y2="0%"><stop offset="30%" stop-color="#0c4439" stop-opacity="1"></stop><stop offset="70%" stop-color="#0a5747" stop-opacity="1"></stop></linearGradient></defs><defs><linearGradient id="grad2_5" x1="0%" y1="100%" x2="100%" y2="0%"><stop offset="30%" stop-color="#066a56" stop-opacity="1"></stop><stop offset="70%" stop-color="#0a5747" stop-opacity="1"></stop></linearGradient></defs><defs><linearGradient id="grad2_6" x1="0%" y1="100%" x2="100%" y2="0%"><stop offset="30%" stop-color="#066a56" stop-opacity="1"></stop><stop offset="70%" stop-color="#027f65" stop-opacity="1"></stop></linearGradient></defs><defs><linearGradient id="grad2_7" x1="0%" y1="100%" x2="100%" y2="0%"><stop offset="30%" stop-color="#009473" stop-opacity="1"></stop><stop offset="70%" stop-color="#027f65" stop-opacity="1"></stop></linearGradient></defs><g transform="translate(770, 1024)"><path d="M-640.6 0C-640.8 -93.2 -640.9 -186.5 -591.8 -245.1C-542.7 -303.8 -444.4 -328 -381.8 -381.8C-319.3 -435.7 -292.6 -519.2 -235 -567.3C-177.3 -615.3 -88.7 -628 0 -640.6L0 0Z" fill="#01896c"></path><path d="M-560.5 0C-560.7 -81.6 -560.8 -163.1 -517.9 -214.5C-474.9 -265.9 -388.8 -287 -334.1 -334.1C-279.4 -381.2 -256.1 -454.3 -205.6 -496.4C-155.1 -538.4 -77.6 -549.5 0 -560.5L0 0Z" fill="#04755d"></path><path d="M-480.5 0C-480.6 -69.9 -480.7 -139.8 -443.9 -183.9C-407.1 -227.9 -333.3 -246 -286.4 -286.4C-239.5 -326.8 -219.5 -389.4 -176.2 -425.4C-133 -461.5 -66.5 -471 0 -480.5L0 0Z" fill="#08604f"></path><path d="M-400.4 0C-400.5 -58.3 -400.6 -116.5 -369.9 -153.2C-339.2 -189.9 -277.7 -205 -238.6 -238.6C-199.6 -272.3 -182.9 -324.5 -146.9 -354.5C-110.8 -384.6 -55.4 -392.5 0 -400.4L0 0Z" fill="#0b4d40"></path><path d="M-320.3 0C-320.4 -46.6 -320.5 -93.2 -295.9 -122.6C-271.4 -151.9 -222.2 -164 -190.9 -190.9C-159.7 -217.8 -146.3 -259.6 -117.5 -283.6C-88.7 -307.7 -44.3 -314 0 -320.3L0 0Z" fill="#0c3a31"></path><path d="M-240.2 0C-240.3 -35 -240.4 -69.9 -221.9 -91.9C-203.5 -113.9 -166.6 -123 -143.2 -143.2C-119.7 -163.4 -109.7 -194.7 -88.1 -212.7C-66.5 -230.8 -33.2 -235.5 0 -240.2L0 0Z" fill="#0c2823"></path><path d="M-160.2 0C-160.2 -23.3 -160.2 -46.6 -148 -61.3C-135.7 -76 -111.1 -82 -95.5 -95.5C-79.8 -108.9 -73.2 -129.8 -58.7 -141.8C-44.3 -153.8 -22.2 -157 0 -160.2L0 0Z" fill="#061815"></path><path d="M-80.1 0C-80.1 -11.7 -80.1 -23.3 -74 -30.6C-67.8 -38 -55.5 -41 -47.7 -47.7C-39.9 -54.5 -36.6 -64.9 -29.4 -70.9C-22.2 -76.9 -11.1 -78.5 0 -80.1L0 0Z" fill="#000e0b"></path></g><g transform="translate(0, 0)"><path d="M640.6 0C621.7 83.8 602.7 167.6 562.6 233.1C522.6 298.5 461.4 345.7 408.7 408.7C356 471.7 311.8 550.5 245.1 591.8C178.4 633.1 89.2 636.9 0 640.6L0 0Z" fill="#01896c"></path><path d="M560.5 0C543.9 73.3 527.4 146.6 492.3 203.9C457.3 261.2 403.7 302.5 357.6 357.6C311.5 412.7 272.9 481.7 214.5 517.9C156.1 554 78.1 557.3 0 560.5L0 0Z" fill="#04755d"></path><path d="M480.5 0C466.2 62.8 452 125.7 422 174.8C391.9 223.9 346 259.3 306.5 306.5C267 353.8 233.9 412.9 183.9 443.9C133.8 474.8 66.9 477.6 0 480.5L0 0Z" fill="#08604f"></path><path d="M400.4 0C388.5 52.4 376.7 104.7 351.7 145.7C326.6 186.6 288.4 216.1 255.4 255.4C222.5 294.8 194.9 344.1 153.2 369.9C111.5 395.7 55.8 398 0 400.4L0 0Z" fill="#0b4d40"></path><path d="M320.3 0C310.8 41.9 301.4 83.8 281.3 116.5C261.3 149.3 230.7 172.9 204.4 204.4C178 235.9 155.9 275.3 122.6 295.9C89.2 316.6 44.6 318.4 0 320.3L0 0Z" fill="#0c3a31"></path><path d="M240.2 0C233.1 31.4 226 62.8 211 87.4C196 111.9 173 129.6 153.3 153.3C133.5 176.9 116.9 206.5 91.9 221.9C66.9 237.4 33.5 238.8 0 240.2L0 0Z" fill="#0c2823"></path><path d="M160.2 0C155.4 20.9 150.7 41.9 140.7 58.3C130.6 74.6 115.3 86.4 102.2 102.2C89 117.9 78 137.6 61.3 148C44.6 158.3 22.3 159.2 0 160.2L0 0Z" fill="#061815"></path><path d="M80.1 0C77.7 10.5 75.3 20.9 70.3 29.1C65.3 37.3 57.7 43.2 51.1 51.1C44.5 59 39 68.8 30.6 74C22.3 79.1 11.2 79.6 0 80.1L0 0Z" fill="#000e0b"></path></g></svg>